# xmcd CD database file
#
# Track frame offsets:
#	150
#	15015
#	28867
#	39797
#	51360
#	61677
#	75742
#	90720
#	105605
#	119667
#	133072
#	146527
#	162122
#	172710
#	187737
#	200525
#	211052
#	223330
#	232760
#	245015
#
# Disc length: 3443 seconds
#
# Revision: 0
# Processed by: cddbd v1.5.1PL0 Copyright (c) Steve Scherf et al.
# Submitted via: ACXtractor (MTCDDB.DLL V2003.07.15)
#
DISCID=030d7114
DTITLE=Geroge Jones - The Definative Collection
DYEAR=2001
DGENRE=Country
TTITLE0=He Stopped Loving Her Today
TTITLE1=A Good year For The Roses
TTITLE2=We Loved It Away
TTITLE3=A Picture Of Me (Without You)
TTITLE4=I'm A One Woman Man 
TTITLE5=The Grand Tour
TTITLE6=I Always Get Lucky With You
TTITLE7=Who's Gonna Fill Their Shoes
TTITLE8=You've Still Got A Place In My Heart
TTITLE9=We're Gonna Hold On
TTITLE10=I'm Not Ready Yet
TTITLE11=Radio Lover
TTITLE12=Nothing Ever Hurt Me (Half As Bad As Losing You)
TTITLE13=Wine Colored Roses
TTITLE14=Still Doin' Time
TTITLE15=Her Name Is
TTITLE16=The Battle
TTITLE17=We Can Make It
TTITLE18=The Door
TTITLE19=Writing On The Wall
EXTD=ID3G:   2 YEAR: 2001
EXTT0=
EXTT1=
EXTT2=
EXTT3=
EXTT4=
EXTT5=
EXTT6=
EXTT7=
EXTT8=
EXTT9=
EXTT10=
EXTT11=
EXTT12=
EXTT13=
EXTT14=
EXTT15=
EXTT16=
EXTT17=
EXTT18=
EXTT19=
PLAYORDER=
